<svg xmlns="http://www.w3.org/2000/svg" viewBox="0 0 80 80" fill="none">
  <defs>
    <linearGradient id="grad" x1="0%" y1="0%" x2="100%" y2="100%">
      <stop offset="0%" style="stop-color:#6366F1;stop-opacity:1" />
      <stop offset="100%" style="stop-color:#8B5CF6;stop-opacity:1" />
    </linearGradient>
  </defs>
  <rect width="80" height="80" rx="20" fill="url(#grad)"/>
  <path d="M40 18C28.954 18 20 26.954 20 38c0 5.627 2.326 10.712 6.068 14.354L24 58l6.646-2.068C33.288 57.632 36.527 58 40 58c11.046 0 20-8.954 20-20s-8.954-20-20-20zm0 36c-2.946 0-5.718-.515-8.318-1.454l-.594-.214-5.168 1.606 1.606-5.168-.214-.594A15.93 15.93 0 0 1 24 38c0-8.822 7.178-16 16-16s16 7.178 16 16-7.178 16-16 16z" fill="white"/>
  <circle cx="30" cy="38" r="3" fill="white"/>
  <circle cx="40" cy="38" r="3" fill="white"/>
  <circle cx="50" cy="38" r="3" fill="white"/>
</svg>
